<mxfile host="65bd71144e">
    <diagram id="ULAZhkoydoiqgnsWd8vF" name="Page-1">
        <mxGraphModel dx="1416" dy="665" grid="0" gridSize="10" guides="1" tooltips="1" connect="1" arrows="1" fold="1" page="1" pageScale="1" pageWidth="1169" pageHeight="827" background="#F4E0AF" math="0" shadow="0">
            <root>
                <mxCell id="0"/>
                <mxCell id="1" parent="0"/>
                <mxCell id="34" value="" style="whiteSpace=wrap;html=1;labelBackgroundColor=#F0F0F0;fontSize=15;fontColor=#F0F0F0;fillColor=none;strokeColor=#000000;" parent="1" vertex="1">
                    <mxGeometry x="61" y="120" width="860" height="500" as="geometry"/>
                </mxCell>
                <mxCell id="2" value="" style="shape=image;verticalLabelPosition=bottom;labelBackgroundColor=default;verticalAlign=top;aspect=fixed;imageAspect=0;image=data:image/png,iVBORw0KGgoAAAANSUhEUgAAAOEAAADhCAMAAAAJbSJIAAAAn1BMVEX///80bJn/zTr/zDQuaZdni63/1mz/yiMaYJLi5+3/9eJuj7D/13H/1GNehanT3OX/8tQmZZX/yy3/2Xj/yR10k7L/3Yn/01r/2n2Pp8CGobtWgKV6mLUMXJD/+vDm6vDv8vX/35H/6bj/7sqywtLI097/5KWmuMz/zkH/9d//3o1NeqH4+fues8j/45+vv9D/57C8ytj/0VH/7MBDdJ6TZD8yAAAFpUlEQVR4nO2b61bqPBCGsS20oBwSKghYERTP7s/T/V/b16agxU3TiZCkcb/PPwFZeVYmE5qZNBoAAAAAAAAAAAAAAAAAAAAAAAAAAAAAAAAAAAAAirSvJ6fN3i6ap5Prtu3h7Ut/yiLGgjJY+u60b3uQe9CfReyoCpbMnHU8T4JKv4wgObc91B/RDqrn73MeAwfX4yoh+2UkK9sDVkVR0D3FtqpgquhWoOYpJoiSKGK0dJN+2vagVTgXSSbqpdvA0+qRmHGYQxm1L2I0el7/OSUqJu7si7MsMNn08+8ecV+cWRyzEu1IzMjTtxeqiVxJNiIqg2bhFZpgcdrrDftrtE1iPmXWxqxEHpNBMTPOiIaOhOn1OnUWXiKuwyN2bW3UKkxyw+gr9/9H/Q3OJhbHTed8E5KbFy6pU7gd2vVlk1aCo3xV9elPUVsJuL58Js4gad6+3s7IM+ieYTpixsg/vN00VAWGNQGGMKw/vSSS8BsM520Jl9Lt3xFDOTCsIU+r2+lpk8qxNA3V0fB6lsjKZ38jE8wNF91Wzsno5urCst8z/byXhDAccn8DD+Px0qLfSqG6pGLoewVSyz+2BKfqtYkfGKZwfmVFsHfoCSw19Lx4ZEFwpkGw1NDjXeOCxzoEyw09PjYseKtwNHEQQ4+fGBWcHz7JVBl64Y1JQ2IxSd0wO03s7jb04o45wb6eGF2fCN+VGPoGs80ez7gVhq/pt8e7BdNJHJgSvNS0CvPKTCcsM/RbpgzJZQhlsmaFd15m6MWmfofLn4D2QCzDs5JlmMJfDBlqm0LRUlMapGmYGtoTtS3DoJd++7vE0ONmDKl9B8qIKRyXB6mxhahrNxSV/4FsCr3QzKavyTAQFdU32RR6oZkdUZNhMk+/eymdQrcNRcvXhVzQZcMg72mTx6jLhuwoC9HGSfnPGbcNgyTvnzqrEnTUkCXNvGejcgZrbCi7URJMRIA2Lt6qBWtpGLAo+eg1j3dxOn1+na+/9CWuSDL1NEz1zl8pzXiDt4ptop6GQfT4SvrC93FImcDaGUaPlLbtznIYUv3qZRhEm0bKzvufs+HJLlrduzjkZL16GbKPy1xv4cX8q1r2HQW5mhmy49yvFRO2ABcN13dDRqQdwEXDfAY73mHnr0aGwUf2qUHpwa77htGlLsGaGIptoqNFsB6GwWP2GS1+xgzlp4niEsLo8EnGpKH0RFjcP7vXE6PGThOlp/pR9mO7rMa5N6ZKM7LKTNTQlmY8Y6f6suqaKFMvNK1CY5UZ2UIURVxdMWquuiapckdzWRF3X4xVSCU7YrYMl9qC1FiVu7zbRPwk1bYMzXUqlHcMiRqnpEy9Fya7TUq7voLT9L2WJkOTHUONss49nYZmu74aJd2XGg0Nd+5l7Oqg1WdovPsyY0cXtDZDCx20GSv2fRp1GVrpghZ8v42gx5D7djrZc7ZvlLDDG9q8jbBm61bQpNqw9AB8BzyMuzZvlJQgN/RPWlSGoxub4VmO3NDUQ6xO/nVD/6Ijw/bgSVRkmlBCbGdjV2WP3cLkM+4ewBCG9QeG206cF7oxfqFhOL5ZvrQ+6/2/ztDn+flgZ3OZyxFD+mli+HmGvVE+szlwMuQT4UIZYn0JgS8sjpsO+VQ/LPzTXW5Yw4fBHdwTKzN+8fgsD+3w3tqolSDO4VZaeRCGrjxaPVDDtPA/IgHzB2tjVoPaqFCMSfEvsSNBWnH/rBCmX0+DYhmaLS7tBXUS+eag9yZ0awopd0PWim/ZYdqgKwS5G9v9Gmr7rx/GcZz3efu+7UEr8YOuKJdiNONKVTGu5+GvBDVF3z3BNFB9ek8G9x0L0TVDYie7HzuVRYsMxgRHPx4b7JM5OPcjHkpulPD03ZGbAVrgfrkYtro7GS6WzusBAAAAAAAAAAAAAAAAAAAAAAAAAAAAAAAAAADAgfkfw6t9jsSZhYMAAAAASUVORK5CYII=;clipPath=inset(16.22% 15.33% 14.44% 14.89% round 5%);" parent="1" vertex="1">
                    <mxGeometry x="280" y="160" width="90" height="89.4267515923567" as="geometry"/>
                </mxCell>
                <mxCell id="5" style="edgeStyle=none;html=1;exitX=1;exitY=0.5;exitDx=0;exitDy=0;dashed=1;dashPattern=8 8;fontColor=#000000;labelBorderColor=#0d0c0c;strokeColor=#000000;" parent="1" source="4" target="2" edge="1">
                    <mxGeometry relative="1" as="geometry"/>
                </mxCell>
                <mxCell id="4" value="" style="shape=image;verticalLabelPosition=bottom;labelBackgroundColor=default;verticalAlign=top;aspect=fixed;imageAspect=0;image=https://static.vecteezy.com/ti/vetor-gratis/p1/34779033-api-icone-programas-integracao-ilustracao-placa-inscricao-simbolo-vetor.jpg;clipPath=inset(18% 17.33% 16.67% 17.67% round 5%);imageBorder=default;" parent="1" vertex="1">
                    <mxGeometry x="80" y="160" width="89.54081632653062" height="90" as="geometry"/>
                </mxCell>
                <mxCell id="6" style="edgeStyle=none;html=1;exitX=1;exitY=0.5;exitDx=0;exitDy=0;dashed=1;dashPattern=8 8;fontColor=#000000;strokeColor=#000000;" parent="1" edge="1">
                    <mxGeometry relative="1" as="geometry">
                        <mxPoint x="370.5408163265306" y="205" as="sourcePoint"/>
                        <mxPoint x="481" y="204.79634348497734" as="targetPoint"/>
                    </mxGeometry>
                </mxCell>
                <mxCell id="12" value="" style="shape=image;verticalLabelPosition=bottom;labelBackgroundColor=default;verticalAlign=top;aspect=fixed;imageAspect=0;image=data:image/png,iVBORw0KGgoAAAANSUhEUgAAAOEAAADhCAMAAAAJbSJIAAAAflBMVEX///8AAAAvLy/Ly8ufn591dXVsbGzr6+vf39/8/PxycnLm5uZra2vi4uKIiIj5+fmWlpZBQUHx8fFmZmbCwsI6Ojq4uLhbW1vOzs6ysrIoKChSUlK7u7vU1NSmpqaUlJR9fX2MjIwbGxtfX19NTU0NDQ0qKioVFRU/Pz9HR0f7dFirAAAGL0lEQVR4nO2dC1eyTBRG5yCmg8YokqaAl7R6+/9/8JsLkJn6BQ44uJ69Vkus0NmdYa4HYwwAAAAAAAAAAAAAAAAAAAAAAAAAAAAAAAAAAADOwjmve6bVcoDa8HjTD+oRdiGI3KcbWLiuKFj0IsuZjIOn6gTjd+cVOYs8onBQ9/xPFUWbBWqAGVFc+2Qh/Yj2wuU29ZVoWb940jBbOx7FgF7ktVgXoSqAbKgSiyWyDdH6hrOlYY+xicsVVVWz207vySogo7i3ViTLDIiGN5yuDblwuaLaMFTIirpws6JaMhT6WrRUJrtYMpRTk4mjnYatWirxzQDOtYpqz9DVimrPsKiojxtDheo0XKuoVg11v+hac2PV0MmKareWsrJFdQfbhsI5xUuG/MqzI34Z5hXVIcUTQ86ypa+n/GtfDTOzyTK71jaKcwsEbvWLpzGcEdFWPvIVRfJhKZ96okIMNWrWX3uJ2TYnhkP6HAo95f9ShpyL0YHml0+Xhi//pqd8vTs0mToxjGmbH4liaWNJuysxfL+4jvrcUImrcmI4lzoGLspvhRcNOettJucIiUaOVNMTw5Q2+ZG5DpmKYXj59EsWI2looXQ2+BXDwtArDK/F8CLPzhquy1paGqa0rf6y7hrOaJkflYZD8lQIq4XRUcN4l1BSNDClIduSt6u6puqooWwAKS2eFIZylLOSnV7Fl3XUkIvsvVwfLmMYyYFZ5WV/Rw2ZGjX7+XFpGNOs+ss6aiiHkmd6i/Sxeov5797iwfrDMoZ8dWxYGXcN0yKGfL3Jm5cHM+z9nPWo2rmhSfWXdddQzveS7dF8MNvOai3kuGvIsvHHca1c0moRs+rzdYcNGfvpU3OL321DG8CwRWBYExi2CAxr4owhN4bcNtrwzuv6QrD4cEtq8J84pPfcLb0p9fnP1Bi122JE9BX3GuLVfKla0sRV/jcmtKqfVvpXuFdncmmJgJ5auEZC+S73ok/9Fgx3NG78PS7Rp6CFdwlh2CAwtAMMm+SaIS8fr7W2/OTxHC4b8nxFipukDF7ukgqhjo9uyeyiIdslSy0V718+Vitv2s/33KLw4H2sPrxp0NNi0WKRvObnPCeL34MkZw335CuDo8G5Hl4+H2XPrNUvyLkXeXk0h0QdMpwZQ6JgpLPb/pmCLuirN4pEFGVb0hs30tArEoq6aFiUWbCl3uY26wHmgpzqlAb5nVhPoVk3DV/pQ5jWJqYXeZARmR/LehnSlmnDaEdfHTYknZZYNJs9+sx/rrbD1enScCA+zN1vXTQURBt52ZW9RUxv5W/4endfGUpxUjfZdsQwj5Y25GyrGs1P2VvM9P5TWhhyNYEuDeVUc3x01f7AMUNedvO5IfffvjsH9m3IfhpGOo22C4ZmVVEd5IYKMXjOenuik1o60ZN3Yyib2vduxJAJj8wIRRnK8VoU5dU20ibfhvynITtQ2BHDz9xwrFcB5zTVz3SbM9K3fee/yNmG+qww1PEbPnfE0OSlJzo1SvaCef9uYngcpZn+G+Qx5GxHh04Ycs90bcJk8A3LZO3UlH5V5oRlJke/iKH6Ub8Dhrp7mIVh4MmhimpzPHoLwjDcLsjktsmR+Mss6PefEjLhLa5DNRqgThiKhekb3l91Hz8sO4vpQDc5k3JqkeitpVFhyOWl2wFDFZWol87T7zv0s3g+n6e9UTEW4K/mG0V27bBctBfD4Zn7D1wztI+LhidrM5z/3AbUbevf18pdNLQLDJsEhnaAYZMEeujcNPc03FLyqyuwDZcD9Db+judJqbzFqTnmbbzJBQSbyuGn1yxqRfxegspxbz975heL2h91Z4Vs7fsbotC3z45o5/vrq3e6N45pZaJmUuyKaZUD96w/em4iDGsDwxaBYU1g2CIwrAkMWwSGNYFhi8CwJjBskcc3vPHzvC8xLDeH70+eKWqZZZm2cX/6akfeuuKB9s58imkv/98IVsuT3vIfJayz14kjFsOo0zYXDn2acLQi2tlsFqIN0dvAHUHOBiu1OB307RAk8tVWo/+5V6NlxMbyWv6u+Xs3KyEvwSje1fhPQecYj8NU+TkUwAZwYCkfAAAAAAAAAAAAAAAAAAAAAAAAAAAAAAAAAAAA7sJ/tglZlRqcguoAAAAASUVORK5CYII=;clipPath=inset(18.89% 23.78% 15.78% 22% round 5%);" parent="1" vertex="1">
                    <mxGeometry x="732" y="154.71" width="83" height="100" as="geometry"/>
                </mxCell>
                <mxCell id="13" value="" style="shape=image;verticalLabelPosition=bottom;labelBackgroundColor=default;verticalAlign=top;aspect=fixed;imageAspect=0;image=data:image/png,iVBORw0KGgoAAAANSUhEUgAAAOEAAADhCAMAAAAJbSJIAAAAn1BMVEX///80bJn/zTr/zDQuaZdni63/1mz/yiMaYJLi5+3/9eJuj7D/13H/1GNehanT3OX/8tQmZZX/yy3/2Xj/yR10k7L/3Yn/01r/2n2Pp8CGobtWgKV6mLUMXJD/+vDm6vDv8vX/35H/6bj/7sqywtLI097/5KWmuMz/zkH/9d//3o1NeqH4+fues8j/45+vv9D/57C8ytj/0VH/7MBDdJ6TZD8yAAAFpUlEQVR4nO2b61bqPBCGsS20oBwSKghYERTP7s/T/V/b16agxU3TiZCkcb/PPwFZeVYmE5qZNBoAAAAAAAAAAAAAAAAAAAAAAAAAAAAAAAAAAAAAirSvJ6fN3i6ap5Prtu3h7Ut/yiLGgjJY+u60b3uQe9CfReyoCpbMnHU8T4JKv4wgObc91B/RDqrn73MeAwfX4yoh+2UkK9sDVkVR0D3FtqpgquhWoOYpJoiSKGK0dJN+2vagVTgXSSbqpdvA0+qRmHGYQxm1L2I0el7/OSUqJu7si7MsMNn08+8ecV+cWRyzEu1IzMjTtxeqiVxJNiIqg2bhFZpgcdrrDftrtE1iPmXWxqxEHpNBMTPOiIaOhOn1OnUWXiKuwyN2bW3UKkxyw+gr9/9H/Q3OJhbHTed8E5KbFy6pU7gd2vVlk1aCo3xV9elPUVsJuL58Js4gad6+3s7IM+ieYTpixsg/vN00VAWGNQGGMKw/vSSS8BsM520Jl9Lt3xFDOTCsIU+r2+lpk8qxNA3V0fB6lsjKZ38jE8wNF91Wzsno5urCst8z/byXhDAccn8DD+Px0qLfSqG6pGLoewVSyz+2BKfqtYkfGKZwfmVFsHfoCSw19Lx4ZEFwpkGw1NDjXeOCxzoEyw09PjYseKtwNHEQQ4+fGBWcHz7JVBl64Y1JQ2IxSd0wO03s7jb04o45wb6eGF2fCN+VGPoGs80ez7gVhq/pt8e7BdNJHJgSvNS0CvPKTCcsM/RbpgzJZQhlsmaFd15m6MWmfofLn4D2QCzDs5JlmMJfDBlqm0LRUlMapGmYGtoTtS3DoJd++7vE0ONmDKl9B8qIKRyXB6mxhahrNxSV/4FsCr3QzKavyTAQFdU32RR6oZkdUZNhMk+/eymdQrcNRcvXhVzQZcMg72mTx6jLhuwoC9HGSfnPGbcNgyTvnzqrEnTUkCXNvGejcgZrbCi7URJMRIA2Lt6qBWtpGLAo+eg1j3dxOn1+na+/9CWuSDL1NEz1zl8pzXiDt4ptop6GQfT4SvrC93FImcDaGUaPlLbtznIYUv3qZRhEm0bKzvufs+HJLlrduzjkZL16GbKPy1xv4cX8q1r2HQW5mhmy49yvFRO2ABcN13dDRqQdwEXDfAY73mHnr0aGwUf2qUHpwa77htGlLsGaGIptoqNFsB6GwWP2GS1+xgzlp4niEsLo8EnGpKH0RFjcP7vXE6PGThOlp/pR9mO7rMa5N6ZKM7LKTNTQlmY8Y6f6suqaKFMvNK1CY5UZ2UIURVxdMWquuiapckdzWRF3X4xVSCU7YrYMl9qC1FiVu7zbRPwk1bYMzXUqlHcMiRqnpEy9Fya7TUq7voLT9L2WJkOTHUONss49nYZmu74aJd2XGg0Nd+5l7Oqg1WdovPsyY0cXtDZDCx20GSv2fRp1GVrpghZ8v42gx5D7djrZc7ZvlLDDG9q8jbBm61bQpNqw9AB8BzyMuzZvlJQgN/RPWlSGoxub4VmO3NDUQ6xO/nVD/6Ijw/bgSVRkmlBCbGdjV2WP3cLkM+4ewBCG9QeG206cF7oxfqFhOL5ZvrQ+6/2/ztDn+flgZ3OZyxFD+mli+HmGvVE+szlwMuQT4UIZYn0JgS8sjpsO+VQ/LPzTXW5Yw4fBHdwTKzN+8fgsD+3w3tqolSDO4VZaeRCGrjxaPVDDtPA/IgHzB2tjVoPaqFCMSfEvsSNBWnH/rBCmX0+DYhmaLS7tBXUS+eag9yZ0awopd0PWim/ZYdqgKwS5G9v9Gmr7rx/GcZz3efu+7UEr8YOuKJdiNONKVTGu5+GvBDVF3z3BNFB9ek8G9x0L0TVDYie7HzuVRYsMxgRHPx4b7JM5OPcjHkpulPD03ZGbAVrgfrkYtro7GS6WzusBAAAAAAAAAAAAAAAAAAAAAAAAAAAAAAAAAADAgfkfw6t9jsSZhYMAAAAASUVORK5CYII=;clipPath=inset(16.22% 15.33% 14.44% 14.89% round 5%);strokeColor=#666666;" parent="1" vertex="1">
                    <mxGeometry x="731" y="380" width="90" height="89.4267515923567" as="geometry"/>
                </mxCell>
                <mxCell id="14" style="edgeStyle=none;html=1;dashed=1;dashPattern=8 8;fontColor=#000000;strokeColor=#000000;" parent="1" edge="1">
                    <mxGeometry relative="1" as="geometry">
                        <mxPoint x="770" y="290" as="sourcePoint"/>
                        <mxPoint x="771" y="377" as="targetPoint"/>
                    </mxGeometry>
                </mxCell>
                <mxCell id="15" value="" style="shape=image;verticalLabelPosition=bottom;labelBackgroundColor=default;verticalAlign=top;aspect=fixed;imageAspect=0;image=https://miro.medium.com/v2/resize:fit:355/1*HxiCknjNWjwy5yGV6frukw.png;clipPath=inset(0% 0.35% 0% 0% round 5%);" parent="1" vertex="1">
                    <mxGeometry x="289" y="331" width="84.5" height="88.95" as="geometry"/>
                </mxCell>
                <mxCell id="17" value="" style="shape=image;verticalLabelPosition=bottom;labelBackgroundColor=default;verticalAlign=top;aspect=fixed;imageAspect=0;image=data:image/jpeg,/9j/4AAQSkZJRgABAQAAAQABAAD/2wCEAAkGBw8SEhUQEA8QFRAPFRUVFRUVFRYQFRUVFRcWFhUVFRUYHSghGBolGxUVITEhJSktLi4uFx8zODMsNyguLisBCgoKDQ0NEA0NFSsZFRk3NysrKystLSsrKysrLS0rKysrKysrKysrKysrKysrKysrKysrKysrKysrKysrKysrK//AABEIANAA8wMBIgACEQEDEQH/xAAcAAEAAgMBAQEAAAAAAAAAAAAAAQcCBggFBAP/xABKEAACAQICBQQPBAgEBwEAAAAAAQIDBAURBgcSIdIXMUFxCBMWNVFSVFVhc5OUo7LEFCKz0yMlMjRCgYKRdIOxwUVicoSStNEk/8QAFQEBAQAAAAAAAAAAAAAAAAAAAAH/xAAUEQEAAAAAAAAAAAAAAAAAAAAA/9oADAMBAAIRAxEAPwC8GyETkSAAAAAAQ0EiQAAAAxzDJSAJEgAAABEgkSAAAAGLYbCQBIyAAAACGQjIAAAAAAAAACGw2QAMkQkSAAAAFS60NadxYXP2O0pUnKnGMqk6qlNZzW1GEYpr+Fpt59OXQaRy5Yv4tl7Kf5gHSIObuXLF/FsvZT/MHLli/i2Xsp/mAdIg5u5csX8Wy9lP8wyjrvxfpjZL/Kn+YB0a2Sjm/lxxfxbL2U/zBy5Yv4tl7Kf5gHSIObuXLF/FsvZT/MHLli/i2Xsp/mAdIg5xjrvxh/w2Ps5/mGPLjjHiWXsp/mAdH5ElSauNcCu6qtcQjSpVqjypVYZxpzk+anJSb2JPoeeT5tzyztsAAQ2AbCZGRkAAAAEZkgAAAIbJIaAxMkgkSAAAAxBKQHL2utfrm4Xot18GmdELRLC/Ntj7tR4TnjXX36uOq3/CpnUIHjdyWF+bbH3ejwjuTwvzbY+70eE9khgeK9FMM822Pu1LhJWieGebrH3elwnsJGQHjdyWF+bbH3ejwjuSwvzbY+70eE9kAeN3JYX5tsfd6PCYvRTDPNtj7vR4T2WwkB460TwzzdY+70eE07XBo7YUsIuatGytKdSHaNmcKNOE4516UXlKMc1mm11Nllmj67O8t3/kf+zRA5bZeeqLWlt7GH4jU+/ujQryf7fQqVVv+LoUunme/nowlRz3eEqO2myEil9Uus/PYw7EKuct0aFxJ/tdCpVZP+LwS6eZ797upEUAAAhsNkADJEJEgAAABCJAAAAYsyAEJEgAcva6+/Vx1W/4VM6hOXtdffq46rf8KmdPtgZAhEgAAAIkSAMUjIAAafrdsqlbCLunSi5T2ac9lb21Tq06k8l0/dhJm4ENgcR7S8I2l4TsmWj1jJtysrVt723Rptt+FvZI7m8P8htPY0+EDjjNHRmojSq4vLerb3EnOdi6ajUe+UqdRT2YyfS4unLf4Gj0daWA2UMKu5wtLaM4U04yjShGSe3HemlmjT+xq57/AKrX6gC7yGySGgMTJIlIAAAABG0AJAABsxBKQEoAAADFsDmLXR36uG/Bb5eypnTyRy/rql+ubhei3/CpnUIAAADFsNhIDJAAAAQ2AbIQRkAAAGo62e9F56pfPEr3saue/wCq1+oLC1s96Lz1S+eJX/Y3Ryd/1Wv1AF3AIAAA2BDZDYbJSAjIGQAhsxMmgkASJAAAACGEiQBy9rr79XHVb/hUzqE5e119+rjqt/wqZ1CAMWyWQkASMgAAAAhkZGQAAAAQ2GyANS1rv9UXnql88Sv+xq57/qtfqCwdbPei89UvniV92NXPf9Vr9QBd4AAGLMiMgCRIAAAAAAAAMWwDZKPkxWvKnQq1Y5bVOnOaz5s4xbWf9jkitpdik5OcsRvNqbzeVepBZvwRi0kvQkB2GDjnuoxLzjfe8VeId1GJecb73irxAXNp/qmvL+/q3lK5t4Qq9qyjPb2lsQjF55Ry54suA48p6S4k+fEL7L/EVuIxek+I+cb73irxAdig457qMS8433vFXiHdRiXnG+94q8QHYwOOe6jEvON97xV4iY6T4j04jfZf4itxAdiNhHH09J8RX/EL3P8AxFbiPz7qMS84XvvFXiA7GBxz3UYl5xvveKvEerotphidO7t5K+upJ1qcZRnVnVhKMpxUoyjJtb036QOsQQ2EBISAA1HWz3ovPVL54lfdjVz3/Va/UFg62e9F56pfPEr3saue/wCq1+oAvBkJkZkpASAAAAAAAAAGBi2SkEiQPP0h/dbj1FX5JHGUeY7N0h/dbj1FX5JHGUeYD6cPsaterChRg51a0lCEVzuT/wBF4X0IvXCdUuEWVBVsXrRqS3bbnVdvQi3zRjk05Po3vflzI1bsesLjUv6txJJ/ZqH3PCp1ZbO0n0fdjUX9R+Gv3F6lTEFbOT7Va04ZR6NuotqUsvDk4r+QG/W2g2i+IxlCydPbit7t689uHQm6cpNZelxKZ0+0PrYXc9oqS26c1t0qqWypwzyea6JJ869K8J5mjuNV7K4p3du0qlF5pPPZknulCSXPFptHo6X6a32JOH2uVNxpOThGFNQUXLJPJ75PmXOwN+1aaqravbLEMTm1RqRc4UlPtUVTWf6SrU50mt6SayWTb35LZLXAdC681bUvsrqSezFRr1oycuhRnt/ef83mejq9vrPFsGjYSm1KlQjbV4RezUhsxUY1Fn0NRUk8ms810NGlYxqIu4Pbsr2nPJ5xVVSoTWW9ZTjtJvm35IDx9a2rWOG7NzbTnK0qS2HGf3pUptNxW0lvg8mk3vTSW/M23RTV3hGIYVC4pUJRuqlGUXLttVqNxBODlsOWWW2s8vA0aXrC0j0gUHY4otiFXKSXa6ajPYkmnCrD9rJ5cz6d5tPY547k7iwk+fK4p9e6FVfhv+4FLVISi3GSalFtNPnTTya/uWtqY1f2mIUq9xe0pTpxnGlSSnOn96K2qjzi1n+1BfyZr2uTBPsmKVsllTusriH9efbF/wCan/dFyWzWCaPqT3VqNDaye9/aa7zS9OVSol1RAoDTajaU764pWUNi2ozdOC2pTzcPuzltSbbzkpfyyPiwFf8A6aHr6P4kT4lm3vebe9t79/hZ6GCxSubddPb6X4kSo7IJRIIoAANR1s96Lz1S+eJX3Y3Ryd/1Wv1BYGtjvReeqXzxNA7Gt5u/6rX6gC7UiQAABi2AbJSCRIAAAAQkSAAAHn6Q/utx6ir8kjjSnluzOy9If3W49RV+SRxlHmAtnsesShC+rW7yX2ihnDN73KlLPZX9MpP+k+PX9hVSniSuHF9quqUNmXRt01sSj1pKL/qK9wzEKtvWp3FCbhVoyU4SXQ14fCnzNdKbL4wvWrg2IUFQxalCnN5bUalN1qMpL+KEkm4/zyy8L5wKU0TwGpf3dK0pZp1ZfelltdrprfObXoWfgzeS6T2NYOgNfCXTdS4o1YV3JQ2dqE3sJOTlB8y3rem+ct2hpvothsZuy7VtzW+NvSlKc8uZOpJJZehyKW040rrYpdO4qR2YRWxSpp7Sp0088s+mTe9v/ZIDZsV1YYhh9rLE6V7FyoxjNfZu2xnsTaTmprJpJSzfoTPmwXXFjNDLtlWncQWWca0Fnl05Thk8/S8zadXGtq3o28bHE1NQpR2IVlF1U6fMoVYLN7luzSeayz9PvQxHQqElcL7CpJ7SypVJZPnWVLZ3dWyB62sijSvsCqXFSm4SVCF1TUktulNJT2evJuD/AOpnP+g2N/Yr+3us8oU6iVTo/Rz+5U/tGTf8kb5rW1p0r6i7GxjPtEnF1as1sOootSjCEedRzSbbye7LLw1MB1Lp/obHEK+H1sk1bXGdXwOg12xp+FOVOEf62aV2ReOfu+Hxlzt3FXqWcKSf8+2PL/lR6ug+trDIWNCne3MoXNKCpzXaqtTPY+7GW1GDTziovrbKZ08x77df3F0m3TnPZpZ5r9FBbFPc/wBnNLaa8MmB4reS6Mz6sC/eqHr6P4kT4WfbgX7zb+vo/iRKjs4AMigITJA1HWyv1ReeqXzxK+7Grnv+q1+oLB1s96Lz1S+eJX3Y1c9/1Wv1AF3gADFslIJEgAAABG0APlvMQhSlCMlNuq8lsxculJ5tc3Oj6zX9IYZ3Fq9nPKU9+U3l+x4r3df+2ZsAAxbDYSA+XFaEqlCtTj+1UpVIRz3b5RaX+pyNV0VxKDcJYfeKUW0/0FSSzW7c1HJr0o7FAHHHc3iHkF57vV4R3N4h5Bee71eE7HIbA45WjeIeQXnu9XhP0ej1/wBFhee71eEubT3W1c2F9Us6drRnGkqWUpSmpPtkIzeaXpkW6Bxv3N4h5Bee71eEnubxDyC893q8J2OAOOO5vEPILz3erwhaN4h5Bee71eE7GbIQHHT0bxDyC893q8I7m8Q8gvPd6vCdjgDjjubxDyC893q8J6ei+ieI1Lu3irG6j+mptynSnThGMZKUpSlJJJJJnWhDYEsxBKQBIkADUdbPei89UvniV92NXPf9Vr9QWDrZ70Xnql88SvuxtWTv+q1+oAu5MkhIkAAABi2GwkBGXWDMAa5pRFdtt84Zvayi9jbUW50+naWzuT5jYWzxdIbSdSrbuMG4wm22oxls74tOWbz2dz5vR4D2kgCRkAAAAAxyMgBy7rr79XHVb/g0zqI5d125rGbh5dFu+vKjT/8AhY619Yf5HefC4wLbIbKm5esP8jvPhcZD174f5HefC4wLZMipFr5w/wAjvPhcZPL1h/kd58LjAtoFS8vWH+R3nwuMcvWH+R3nwuMC2jFlT8vWH+R3nwuMcvOH+R3nwuMC2UiSpeXrD/I7z4XGOXrD/I7z4XGBbQKl5esP8jvPhcZMte1h5HefC4wNq1sP9UXnql88TQOxsebv+q1+oPm011wWd5Y17Sla3MZ14KKlPtaivvJ5vKTfR4D6Oxq57/8A7X6gC7wAAMWzIjICEjIAAAAPB0jX36P6KhJTmoNzgpy3vPZjmt27N5t5c57yR4WkVGUqlD79OMIzTylKMdqWaeyk4tt5J8zXT6D3QABDYBshBIyAAADVdMNX2HYlKNS5hNVYLZVSnLYk455qMtzTWbfOuk1zkOwfx7z2seAsxsJgVnyHYP4957WPAOQ7B/HvPax4CzQBWXIdg/j3ntY8A5DsH8e89rHgLNDArJ6jsH8e89rHgI5D8H8e89rHgLLMkgKz5DsH8e89rHgHIdg/j3ntY8BZoArLkOwfx7z2seAch2D+Pee1jwFmkZgVnyHYP4957WPAS9R+EePe+1jwFmACsuQ7B/HvPax4DdNFtGLTD6PaLSnsxb2pNtynOXNtSk+fcuo9kACMyGwkBkAAAAAAADXdKZ/pLZbdPdVjLZklnnnltpt+nLm6fDkbEedimGutKnLtmSpTU9hxUoya5nnukn1PL0M9ECGyEMjIAAABDYbIQEIzQQAAACGyMwyUgCRIAAAxbAZkxQSJAAAAYthsJAEjIAAAQ2AbIQSMgAAA/9k=;clipPath=inset(8.65% 17.9% 8.17% 12.55% round 5%);" parent="1" vertex="1">
                    <mxGeometry x="290" y="482" width="87.92" height="90" as="geometry"/>
                </mxCell>
                <mxCell id="19" value="" style="shape=image;verticalLabelPosition=bottom;labelBackgroundColor=default;verticalAlign=top;aspect=fixed;imageAspect=0;image=https://www.creativefabrica.com/wp-content/uploads/2021/08/06/1628232359/Folder-icon-black-580x386.jpg;clipPath=inset(14.5% 24.67% 23.5% 21.33% round 5%);" parent="1" vertex="1">
                    <mxGeometry x="492" y="389.83" width="104" height="79.6" as="geometry"/>
                </mxCell>
                <mxCell id="20" style="edgeStyle=none;html=1;dashed=1;dashPattern=8 8;fontColor=#000000;strokeColor=#000000;" parent="1" edge="1">
                    <mxGeometry relative="1" as="geometry">
                        <mxPoint x="467" y="440" as="sourcePoint"/>
                        <mxPoint x="387" y="520" as="targetPoint"/>
                    </mxGeometry>
                </mxCell>
                <mxCell id="21" style="edgeStyle=none;html=1;dashed=1;dashPattern=8 8;fontColor=#000000;strokeColor=#000000;" parent="1" edge="1">
                    <mxGeometry relative="1" as="geometry">
                        <mxPoint x="457" y="420" as="sourcePoint"/>
                        <mxPoint x="377" y="380" as="targetPoint"/>
                    </mxGeometry>
                </mxCell>
                <mxCell id="22" style="edgeStyle=none;html=1;dashed=1;dashPattern=8 8;fontColor=#000000;strokeColor=#000000;" parent="1" edge="1">
                    <mxGeometry relative="1" as="geometry">
                        <mxPoint x="720" y="427" as="sourcePoint"/>
                        <mxPoint x="604" y="427" as="targetPoint"/>
                    </mxGeometry>
                </mxCell>
                <mxCell id="23" value="&lt;b style=&quot;font-size: 15px;&quot;&gt;Marvel API&lt;/b&gt;" style="text;html=1;align=center;verticalAlign=middle;resizable=0;points=[];autosize=1;strokeColor=none;fillColor=none;fontSize=15;fontColor=#121212;" parent="1" vertex="1">
                    <mxGeometry x="73" y="254.71" width="100" height="30" as="geometry"/>
                </mxCell>
                <mxCell id="24" value="&lt;b&gt;api_request_code&lt;/b&gt;" style="text;html=1;align=center;verticalAlign=middle;resizable=0;points=[];autosize=1;strokeColor=none;fillColor=none;fontSize=15;fontColor=#121212;" parent="1" vertex="1">
                    <mxGeometry x="251" y="254.71000000000004" width="150" height="30" as="geometry"/>
                </mxCell>
                <mxCell id="25" value="&lt;b style=&quot;font-size: 15px;&quot;&gt;record_{uuid}.json&lt;/b&gt;" style="text;html=1;align=center;verticalAlign=middle;resizable=0;points=[];autosize=1;strokeColor=none;fillColor=none;fontSize=15;fontColor=#121212;" parent="1" vertex="1">
                    <mxGeometry x="700" y="255.71000000000004" width="160" height="30" as="geometry"/>
                </mxCell>
                <mxCell id="26" value="&lt;b style=&quot;font-size: 15px;&quot;&gt;characters/ characters_...&lt;/b&gt;" style="text;html=1;align=center;verticalAlign=middle;resizable=0;points=[];autosize=1;strokeColor=none;fillColor=none;fontSize=15;fontColor=#121212;" parent="1" vertex="1">
                    <mxGeometry x="233" y="420.71000000000004" width="200" height="30" as="geometry"/>
                </mxCell>
                <mxCell id="27" value="&lt;b&gt;output_result&lt;/b&gt;" style="text;html=1;align=center;verticalAlign=middle;resizable=0;points=[];autosize=1;strokeColor=none;fillColor=none;fontSize=15;fontColor=#121212;" parent="1" vertex="1">
                    <mxGeometry x="485" y="471.71000000000004" width="120" height="30" as="geometry"/>
                </mxCell>
                <mxCell id="28" value="&lt;b&gt;etl_functions_characters&lt;/b&gt;" style="text;html=1;align=center;verticalAlign=middle;resizable=0;points=[];autosize=1;strokeColor=none;fillColor=none;fontSize=15;fontColor=#121212;" parent="1" vertex="1">
                    <mxGeometry x="676" y="470.71000000000004" width="200" height="30" as="geometry"/>
                </mxCell>
                <mxCell id="29" value="&lt;b&gt;technical_result&lt;/b&gt;" style="text;html=1;align=center;verticalAlign=middle;resizable=0;points=[];autosize=1;strokeColor=none;fillColor=none;fontSize=15;fontColor=#121212;" parent="1" vertex="1">
                    <mxGeometry x="262" y="573.71" width="140" height="30" as="geometry"/>
                </mxCell>
                <mxCell id="30" value="" style="shape=image;verticalLabelPosition=bottom;labelBackgroundColor=default;verticalAlign=top;aspect=fixed;imageAspect=0;image=https://www.creativefabrica.com/wp-content/uploads/2021/08/06/1628232359/Folder-icon-black-580x386.jpg;clipPath=inset(14.5% 24.67% 23.5% 21.33% round 5%);" parent="1" vertex="1">
                    <mxGeometry x="492" y="168.82999999999998" width="104" height="79.6" as="geometry"/>
                </mxCell>
                <mxCell id="31" value="&lt;b&gt;tmp_output /&lt;br&gt;characters&lt;br&gt;&lt;/b&gt;" style="text;html=1;align=center;verticalAlign=middle;resizable=0;points=[];autosize=1;strokeColor=none;fillColor=none;fontSize=15;fontColor=#121212;" parent="1" vertex="1">
                    <mxGeometry x="493" y="245.71000000000004" width="110" height="50" as="geometry"/>
                </mxCell>
                <mxCell id="32" style="edgeStyle=none;html=1;exitX=1;exitY=0.5;exitDx=0;exitDy=0;dashed=1;dashPattern=8 8;fontColor=#000000;strokeColor=#000000;" parent="1" edge="1">
                    <mxGeometry relative="1" as="geometry">
                        <mxPoint x="601.5408163265306" y="205" as="sourcePoint"/>
                        <mxPoint x="712" y="204.79634348497734" as="targetPoint"/>
                    </mxGeometry>
                </mxCell>
            </root>
        </mxGraphModel>
    </diagram>
</mxfile>